<svg width="17" height="13" viewBox="0 0 17 13" fill="none" xmlns="http://www.w3.org/2000/svg">
<path fill-rule="evenodd" clip-rule="evenodd" d="M3.66554 0.0228789C3.29162 0.0880904 2.92351 0.280875 2.66059 0.549185C2.47874 0.734776 2.28719 1.05266 2.20272 1.30902C2.13085 1.52712 2.12899 1.57486 2.11838 3.48662L2.10751 5.44123L1.76849 5.4603C1.261 5.48887 0.909479 5.63449 0.568665 5.95736C0.357701 6.15724 0.173631 6.44777 0.0768592 6.73366L0 6.96064V9.81665C0 12.6483 0.000598389 12.6735 0.0685483 12.7664C0.19135 12.9343 0.307636 13 0.482032 13C0.656362 13 0.772582 12.9344 0.895517 12.7665C0.952895 12.6882 0.965893 12.6124 0.975301 12.3021L0.986571 11.9312H8.49374H16.0009L16.0122 12.3021C16.0216 12.6124 16.0346 12.6882 16.092 12.7665C16.2149 12.9344 16.3311 13 16.5055 13C16.6798 13 16.7961 12.9343 16.9189 12.7664C16.9867 12.6738 16.9876 12.6398 16.9968 9.91847C17.005 7.50266 16.9997 7.13415 16.9533 6.91966C16.8829 6.5938 16.745 6.32186 16.5234 6.07197C16.1734 5.67718 15.7741 5.48975 15.219 5.45962L14.88 5.44123L14.8691 3.48662C14.8585 1.57486 14.8566 1.52712 14.7848 1.30902C14.5915 0.72246 14.1412 0.271035 13.5468 0.0679365C13.3728 0.00852682 13.1312 0.00523577 8.59347 0.00045178C5.96972 -0.00229647 3.75217 0.00778054 3.66554 0.0228789ZM13.2789 1.05954C13.4058 1.09802 13.5 1.15869 13.6149 1.27591C13.8826 1.54914 13.8792 1.51942 13.8792 3.62481V5.4508H12.9484C12.4364 5.4508 12.0176 5.44347 12.0176 5.43455C12.0176 5.42563 12.055 5.3046 12.1007 5.16563C12.1761 4.93627 12.1838 4.86068 12.1838 4.34703C12.1838 3.94096 12.1689 3.72222 12.1311 3.57263C11.9729 2.9463 11.4477 2.40819 10.836 2.24557C10.5444 2.16804 6.44308 2.16804 6.15147 2.24557C5.54194 2.40761 5.01403 2.94854 4.85636 3.57263C4.8186 3.72222 4.8037 3.94096 4.8037 4.34703C4.8037 4.86068 4.81138 4.93627 4.88681 5.16563C4.93252 5.3046 4.96992 5.42563 4.96992 5.43455C4.96992 5.44347 4.55105 5.4508 4.0391 5.4508H3.10828V3.62481C3.10828 2.05855 3.11576 1.77307 3.16087 1.61808C3.23278 1.37088 3.43383 1.15716 3.67402 1.07254C3.84934 1.01075 4.03182 1.00828 8.47938 1.00723C12.5922 1.00624 13.122 1.01201 13.2789 1.05954ZM10.7052 3.27497C10.8759 3.35413 11.0467 3.52849 11.1243 3.70271C11.1737 3.81386 11.1851 3.92776 11.1857 4.31659C11.1864 4.7709 11.1821 4.80286 11.0951 4.97797C10.9932 5.18297 10.7911 5.35987 10.5956 5.41531C10.4266 5.46322 6.56093 5.46322 6.39192 5.41531C6.19634 5.35987 5.99432 5.18297 5.89243 4.97797C5.80543 4.80286 5.80104 4.7709 5.80174 4.31659C5.80257 3.77973 5.83615 3.65586 6.03628 3.45161C6.28002 3.20284 6.1756 3.21298 8.49374 3.21298C10.435 3.21298 10.5802 3.21705 10.7052 3.27497ZM15.4159 6.50416C15.6009 6.55658 15.8096 6.73651 15.9052 6.92597C15.9883 7.09052 15.9904 7.11207 16.0002 7.90112L16.0102 8.70798H8.49374H0.977329L0.987302 7.90112C0.997042 7.11644 0.999602 7.08971 1.08055 6.92926C1.17546 6.74122 1.34577 6.58678 1.53343 6.51848C1.64127 6.47926 2.76859 6.47145 8.47712 6.47033C13.0736 6.46949 15.3324 6.48048 15.4159 6.50416ZM16.0068 10.3196V10.9134H8.49374H0.980687V10.3196V9.72585H8.49374H16.0068V10.3196Z" fill="#F4683F"/>
</svg>
