<svg width="26" height="26" viewBox="0 0 26 26" fill="none" xmlns="http://www.w3.org/2000/svg">
<g clip-path="url(#clip0_102_6422)">
<path d="M12.9985 4.90639C15.5432 2.62164 19.4757 2.69748 21.9273 5.15339C24.3778 7.61039 24.4623 11.5234 22.183 14.0757L12.9963 23.2754L3.81182 14.0757C1.53249 11.5234 1.61807 7.60389 4.06749 5.15339C6.52124 2.70073 10.4462 2.61839 12.9985 4.90639ZM20.3933 6.68414C18.7683 5.05698 16.1467 4.9909 14.4458 6.51839L12.9996 7.81623L11.5522 6.51948C9.84599 4.98981 7.22974 5.05698 5.6004 6.68631C3.98624 8.30048 3.90499 10.8842 5.3924 12.5916L12.9974 20.2085L20.6024 12.5926C22.0909 10.8842 22.0097 8.30373 20.3933 6.68414Z" fill="#F4683F"/>
</g>
<defs>
<clipPath id="clip0_102_6422">
<rect width="26" height="26" fill="white"/>
</clipPath>
</defs>
</svg>
