<svg width="26" height="26" viewBox="0 0 26 26" fill="none" xmlns="http://www.w3.org/2000/svg">
<g clip-path="url(#clip0_6527_257)">
<path d="M12.6748 9.50675C11.8343 9.50675 11.0283 9.84063 10.434 10.4349C9.83965 11.0293 9.50577 11.8353 9.50577 12.6758C9.50577 13.5163 9.83965 14.3223 10.434 14.9167C11.0283 15.511 11.8343 15.8448 12.6748 15.8448C13.5153 15.8448 14.3214 15.511 14.9157 14.9167C15.51 14.3223 15.8439 13.5163 15.8439 12.6758C15.8439 11.8353 15.51 11.0293 14.9157 10.4349C14.3214 9.84063 13.5153 9.50675 12.6748 9.50675ZM12.6748 7.39405C14.0756 7.39405 15.4191 7.95052 16.4096 8.94104C17.4001 9.93156 17.9566 11.275 17.9566 12.6758C17.9566 14.0766 17.4001 15.42 16.4096 16.4106C15.4191 17.4011 14.0756 17.9575 12.6748 17.9575C11.274 17.9575 9.93058 17.4011 8.94006 16.4106C7.94954 15.42 7.39307 14.0766 7.39307 12.6758C7.39307 11.275 7.94954 9.93156 8.94006 8.94104C9.93058 7.95052 11.274 7.39405 12.6748 7.39405ZM19.5411 7.12996C19.5411 7.48016 19.402 7.81602 19.1543 8.06365C18.9067 8.31128 18.5709 8.4504 18.2207 8.4504C17.8704 8.4504 17.5346 8.31128 17.287 8.06365C17.0393 7.81602 16.9002 7.48016 16.9002 7.12996C16.9002 6.77976 17.0393 6.4439 17.287 6.19627C17.5346 5.94864 17.8704 5.80953 18.2207 5.80953C18.5709 5.80953 18.9067 5.94864 19.1543 6.19627C19.402 6.4439 19.5411 6.77976 19.5411 7.12996ZM12.6748 4.225C10.0614 4.225 9.63465 4.2324 8.41879 4.28627C7.59061 4.32536 7.03497 4.43627 6.51947 4.63698C6.06102 4.81445 5.73038 5.02677 5.37862 5.37959C5.04799 5.69903 4.79377 6.08902 4.63495 6.52045C4.43424 7.03806 4.32332 7.59264 4.28529 8.41977C4.23036 9.58598 4.22403 9.99373 4.22403 12.6758C4.22403 15.2892 4.23142 15.716 4.28529 16.9318C4.32438 17.7589 4.4353 18.3156 4.63495 18.8301C4.81453 19.2896 5.0258 19.6202 5.3765 19.9709C5.73249 20.3259 6.06313 20.5382 6.51736 20.7136C7.0392 20.9153 7.59484 21.0273 8.41879 21.0653C9.585 21.1203 9.99275 21.1266 12.6748 21.1266C15.2882 21.1266 15.715 21.1192 16.9308 21.0653C17.7569 21.0262 18.3136 20.9153 18.8291 20.7157C19.2865 20.5371 19.6193 20.3248 19.97 19.9741C20.326 19.6181 20.5383 19.2875 20.7136 18.8333C20.9143 18.3125 21.0263 17.7558 21.0643 16.9318C21.1193 15.7656 21.1256 15.3579 21.1256 12.6758C21.1256 10.0624 21.1182 9.63562 21.0643 8.41977C21.0253 7.5937 20.9143 7.03595 20.7136 6.52045C20.5544 6.08946 20.3007 5.69962 19.971 5.37959C19.6517 5.04879 19.2617 4.79455 18.8302 4.63592C18.3126 4.43522 17.7569 4.3243 16.9308 4.28627C15.7646 4.23134 15.3569 4.225 12.6748 4.225ZM12.6748 2.1123C15.5449 2.1123 15.903 2.12287 17.0291 2.17569C18.1541 2.2285 18.92 2.40491 19.5939 2.66689C20.2911 2.9352 20.8784 3.29858 21.4658 3.88486C22.0029 4.41292 22.4185 5.05169 22.6837 5.75671C22.9446 6.4296 23.1221 7.19651 23.1749 8.32152C23.2246 9.44759 23.2383 9.8057 23.2383 12.6758C23.2383 15.5459 23.2277 15.904 23.1749 17.0301C23.1221 18.1551 22.9446 18.9209 22.6837 19.5949C22.4193 20.3003 22.0036 20.9392 21.4658 21.4667C20.9375 22.0037 20.2988 22.4193 19.5939 22.6847C18.921 22.9456 18.1541 23.1231 17.0291 23.1759C15.903 23.2256 15.5449 23.2393 12.6748 23.2393C9.80472 23.2393 9.44662 23.2287 8.32055 23.1759C7.19554 23.1231 6.42968 22.9456 5.75573 22.6847C5.05044 22.4201 4.41156 22.0044 3.88388 21.4667C3.34663 20.9388 2.93098 20.3 2.66591 19.5949C2.40394 18.922 2.22753 18.1551 2.17471 17.0301C2.12506 15.904 2.11133 15.5459 2.11133 12.6758C2.11133 9.8057 2.12189 9.44759 2.17471 8.32152C2.22753 7.19546 2.40394 6.43066 2.66591 5.75671C2.93025 5.05126 3.34599 4.41232 3.88388 3.88486C4.41171 3.34742 5.05054 2.93175 5.75573 2.66689C6.42968 2.40491 7.19448 2.2285 8.32055 2.17569C9.44662 2.12604 9.80472 2.1123 12.6748 2.1123Z" fill="#C0C2D7"/>
</g>
<defs>
<clipPath id="clip0_6527_257">
<rect width="25.3524" height="25.3524" fill="white"/>
</clipPath>
</defs>
</svg>
