<svg width="18" height="18" viewBox="0 0 18 18" fill="none" xmlns="http://www.w3.org/2000/svg">
<path d="M9.00016 0C5.58018 0 2.80859 2.77236 2.80859 6.19234C2.80859 8.79932 6.40748 14.8066 8.1175 17.514C8.30914 17.8167 8.64283 18 9.00078 18C9.35888 17.9992 9.69189 17.8161 9.88293 17.5134C11.5935 14.8054 15.1918 8.79929 15.1918 6.1923C15.1918 2.77236 12.4202 0 9.00016 0ZM9.00016 9.97275C7.06604 9.97275 5.49808 8.40501 5.49808 6.47063C5.49808 4.53647 7.06601 2.96855 9.00016 2.96855C10.9343 2.96855 12.5022 4.53644 12.5022 6.47063C12.5022 8.40501 10.9344 9.97275 9.00016 9.97275Z" fill="#F4683F"/>
</svg>
