<svg width="21" height="18" viewBox="0 0 21 18" fill="none" xmlns="http://www.w3.org/2000/svg">
<path fill-rule="evenodd" clip-rule="evenodd" d="M19.1745 0.0563435C19.067 0.0867752 17.0539 0.899021 14.7009 1.86139C12.3479 2.82371 8.30409 4.47746 5.7147 5.53633C3.12531 6.59525 0.908958 7.51268 0.789481 7.57509C0.551932 7.69918 0.300123 7.95991 0.261053 8.12221C0.196352 8.39109 0.377835 8.73346 0.698876 8.94815C0.915444 9.09297 5.26012 10.6423 5.36998 10.6138C5.40601 10.6045 7.98864 8.90635 11.1091 6.84017C14.2296 4.77399 16.8316 3.06574 16.8912 3.04407C17.042 2.98928 17.2441 3.01722 17.2936 3.09976C17.405 3.28536 17.6137 3.08118 10.4722 9.7729C8.26651 11.8397 8.1073 11.9977 8.16872 12.0594C8.20505 12.0958 9.85226 13.4154 11.8292 14.9918C14.5132 17.132 15.4732 17.876 15.6191 17.9288C15.9028 18.0314 16.2398 18.0225 16.4786 17.906C16.6634 17.8159 16.9477 17.5401 17.0388 17.3625C17.083 17.2765 20.2495 0.683147 20.248 0.545328C20.2462 0.373575 20.1047 0.133136 19.9647 0.0638394C19.7987 -0.0182896 19.4496 -0.0215894 19.1745 0.0563435Z" fill="#C0C2D7"/>
</svg>
