<svg width="24" height="23" viewBox="0 0 24 23" fill="none" xmlns="http://www.w3.org/2000/svg">
<path fill-rule="evenodd" clip-rule="evenodd" d="M10.4263 0.0686301C5.10927 0.721674 0.930453 4.96027 0.38019 10.2586C0.29865 11.0438 0.348038 12.5306 0.480655 13.281C0.690564 14.4693 1.03792 15.5148 1.5778 16.5831L1.84907 17.12L1.04077 20.0541C0.596182 21.6679 0.239559 22.9935 0.248201 22.9999C0.256891 23.0062 1.61092 22.6578 3.25717 22.2256C5.65374 21.5963 6.27439 21.4488 6.37104 21.4854C6.43742 21.5105 6.75243 21.6486 7.07106 21.7922C8.10593 22.2586 9.1927 22.5679 10.3362 22.7216C11.131 22.8284 12.5257 22.8278 13.2988 22.7202C15.8363 22.3672 18.1034 21.2521 19.8902 19.4779C20.8246 18.5502 21.446 17.7016 22.0375 16.5454C22.5702 15.5042 22.9461 14.3691 23.1561 13.1672C23.2788 12.4648 23.2787 10.4006 23.1558 9.66448C22.9481 8.42082 22.6277 7.4272 22.0801 6.32969C20.5219 3.20645 17.6443 0.98006 14.2037 0.235658C13.1312 0.00361363 11.5317 -0.0671128 10.4263 0.0686301ZM13.4436 2.05454C14.8285 2.30908 15.9769 2.7689 17.1127 3.52362C19.0518 4.81215 20.4792 6.81302 21.0434 9.03347C21.4578 10.6641 21.4252 12.5162 20.9546 14.0842C20.1937 16.6194 18.3802 18.7534 16.007 19.9061C14.6272 20.5762 13.3505 20.8684 11.8022 20.8684C10.0276 20.8684 8.45454 20.4405 6.84903 19.5208L6.57868 19.366L4.80194 19.83C3.82471 20.0852 3.01776 20.2866 3.00869 20.2776C2.99961 20.2686 3.2001 19.5086 3.45424 18.5887C3.70832 17.6689 3.91808 16.8824 3.92035 16.8411C3.92262 16.7997 3.79768 16.5608 3.64271 16.3101C1.36586 12.6271 1.96262 7.77003 5.06935 4.69828C6.61475 3.17028 8.57122 2.23126 10.7643 1.96495C11.3566 1.89303 12.8335 1.9424 13.4436 2.05454ZM7.2954 6.24121C7.01622 6.37859 6.50607 6.97741 6.29279 7.41813C5.87384 8.28383 5.88238 9.3751 6.31601 10.3856C6.84889 11.6273 8.24313 13.3904 9.61951 14.5629C10.5843 15.3847 11.3904 15.8663 12.5747 16.3283C13.7844 16.8002 14.0165 16.8545 14.8195 16.8542C15.4511 16.854 15.5514 16.842 15.845 16.732C16.3279 16.5512 16.6883 16.3235 17.0473 15.9722C17.3259 15.6996 17.382 15.6143 17.4732 15.3244C17.5869 14.963 17.6519 14.3813 17.6011 14.1799C17.5745 14.0746 17.4381 13.9892 16.7522 13.6479C15.4956 13.0225 14.989 12.8073 14.7738 12.8073C14.5974 12.8073 14.5673 12.8288 14.3541 13.1072C13.8666 13.7436 13.4194 14.2365 13.3028 14.2655C13.1632 14.3003 12.889 14.2005 12.2555 13.8843C11.2299 13.3724 10.3932 12.6878 9.67382 11.7721C9.2823 11.2738 8.92973 10.7059 8.92973 10.5736C8.92973 10.5169 9.11125 10.2352 9.33313 9.94758C9.76797 9.38383 9.89527 9.17348 9.89527 9.01864C9.89527 8.96432 9.80099 8.69874 9.68575 8.4285C9.57051 8.15821 9.33811 7.60243 9.16928 7.19338C8.96 6.68639 8.81309 6.39999 8.70775 6.2937L8.55317 6.13776L8.02936 6.13781C7.59028 6.13781 7.47157 6.15456 7.2954 6.24121Z" fill="#C0C2D7"/>
</svg>
